<?xml version="1.0" encoding="UTF-8"?>
<!DOCTYPE svg
PUBLIC "-//W3C//DTD SVG 1.1//EN"
       "http://www.w3.org/Graphics/SVG/1.1/DTD/svg11.dtd">
<svg viewBox="221 248 756 634" width="535px" height="386px" xmlns="http://www.w3.org/2000/svg" version="1.1">
   <rect width="38" height="20" x="486" y="263" style="fill:#007;stroke:black;"/>
   <text width="38" height="20" x="491" y="277" style="fill:#fff;" font-family="Arial" font-size="16px"> cart</text>
   <rect width="38" height="20" x="486" y="283" style="fill:none;stroke:black;"/>
   <text width="38" height="20" x="491" y="297" style="fill:black;" font-family="Arial" font-size="16px">pid</text>
   <rect width="38" height="20" x="486" y="303" style="fill:none;stroke:black;"/>
   <text width="38" height="20" x="491" y="317" style="fill:black;" font-family="Arial" font-size="16px">uid</text>
   <rect width="80" height="20" x="661" y="399" style="fill:#007;stroke:black;"/>
   <text width="80" height="20" x="666" y="413" style="fill:#fff;" font-family="Arial" font-size="16px"> product</text>
   <rect width="80" height="20" x="661" y="419" style="fill:#aea;stroke:black;"/>
   <text width="80" height="20" x="666" y="433" style="fill:black;" font-family="Arial" font-size="16px">pid</text>
   <rect width="80" height="20" x="661" y="439" style="fill:none;stroke:black;"/>
   <text width="80" height="20" x="666" y="453" style="fill:black;" font-family="Arial" font-size="16px">name</text>
   <rect width="80" height="20" x="661" y="459" style="fill:none;stroke:black;"/>
   <text width="80" height="20" x="666" y="473" style="fill:black;" font-family="Arial" font-size="16px">display</text>
   <rect width="80" height="20" x="661" y="479" style="fill:none;stroke:black;"/>
   <text width="80" height="20" x="666" y="493" style="fill:black;" font-family="Arial" font-size="16px">processor</text>
   <rect width="80" height="20" x="661" y="499" style="fill:none;stroke:black;"/>
   <text width="80" height="20" x="666" y="513" style="fill:black;" font-family="Arial" font-size="16px">storage</text>
   <rect width="80" height="20" x="661" y="519" style="fill:none;stroke:black;"/>
   <text width="80" height="20" x="666" y="533" style="fill:black;" font-family="Arial" font-size="16px">ram</text>
   <rect width="80" height="20" x="661" y="539" style="fill:none;stroke:black;"/>
   <text width="80" height="20" x="666" y="553" style="fill:black;" font-family="Arial" font-size="16px">os</text>
   <rect width="80" height="20" x="661" y="559" style="fill:none;stroke:black;"/>
   <text width="80" height="20" x="666" y="573" style="fill:black;" font-family="Arial" font-size="16px">warranty</text>
   <rect width="80" height="20" x="661" y="579" style="fill:none;stroke:black;"/>
   <text width="80" height="20" x="666" y="593" style="fill:black;" font-family="Arial" font-size="16px">price</text>
   <rect width="80" height="20" x="661" y="599" style="fill:none;stroke:black;"/>
   <text width="80" height="20" x="666" y="613" style="fill:black;" font-family="Arial" font-size="16px">imgname</text>
   <rect width="81" height="20" x="236" y="440" style="fill:#007;stroke:black;"/>
   <text width="81" height="20" x="241" y="454" style="fill:#fff;" font-family="Arial" font-size="16px"> user</text>
   <rect width="81" height="20" x="236" y="460" style="fill:#aea;stroke:black;"/>
   <text width="81" height="20" x="241" y="474" style="fill:black;" font-family="Arial" font-size="16px">uid</text>
   <rect width="81" height="20" x="236" y="480" style="fill:none;stroke:black;"/>
   <text width="81" height="20" x="241" y="494" style="fill:black;" font-family="Arial" font-size="16px">username</text>
   <rect width="81" height="20" x="236" y="500" style="fill:none;stroke:black;"/>
   <text width="81" height="20" x="241" y="514" style="fill:black;" font-family="Arial" font-size="16px">password</text>
   <rect width="81" height="20" x="236" y="520" style="fill:none;stroke:black;"/>
   <text width="81" height="20" x="241" y="534" style="fill:black;" font-family="Arial" font-size="16px">fname</text>
   <rect width="81" height="20" x="236" y="540" style="fill:none;stroke:black;"/>
   <text width="81" height="20" x="241" y="554" style="fill:black;" font-family="Arial" font-size="16px">lname</text>
</svg>
